<?xml version="1.0" encoding="utf-8"?>
<!-- Generated by IcoMoon.io -->
<svg version="1.1" xmlns="http://www.w3.org/2000/svg" xmlns:xlink="http://www.w3.org/1999/xlink" width="752" height="128" viewBox="0 0 752 128">
<svg id="icon-account" width="32" height="32" viewBox="0 0 32 32" x="0" y="0">
<path d="M16.005 4.812c0 0 0.001 0 0.001 0 2.962 0 5.363 2.401 5.363 5.363 0 2.73-2.041 4.984-4.68 5.32l-0.027 0.003c3.789 0.224 9.708 2.341 9.708 6.34v5.378h-20.712v-5.378c0-3.996 5.913-6.112 9.703-6.339-2.67-0.335-4.714-2.59-4.714-5.323 0-2.957 2.393-5.354 5.347-5.363h0.001zM16.005 13.616c1.9 0 3.441-1.541 3.441-3.441s-1.541-3.441-3.441-3.441v0-0.96l-0.007 0.96c-1.899 0.002-3.438 1.542-3.438 3.441 0 1.9 1.541 3.441 3.441 3.441 0.001 0 0.002 0 0.004 0h-0zM24.449 25.293v-3.456c0-2.709-5.538-4.438-8.434-4.438s-8.434 1.728-8.434 4.438v3.456z"></path>
</svg>
<svg id="icon-cart" width="32" height="32" viewBox="0 0 32 32" x="48" y="0">
<path d="M24.155 27.2h-16.312c-0.525-0.003-0.994-0.238-1.31-0.608l-0.002-0.002c-0.281-0.327-0.452-0.756-0.452-1.224 0-0.102 0.008-0.202 0.024-0.299l-0.001 0.011 2.324-15.466h15.528l1.952 15.511c0.010 0.073 0.016 0.157 0.016 0.242 0 0.477-0.177 0.912-0.468 1.244l0.002-0.002c-0.318 0.363-0.782 0.591-1.299 0.594h-0zM10.078 11.532l-2.080 13.831 15.989-0.083-1.728-13.749z"></path>
<path d="M20.103 9.194h-1.92c0-1.364-0.98-2.474-2.183-2.474s-2.184 1.11-2.184 2.474h-1.92c-0.001-2.423 1.841-4.394 4.104-4.394s4.103 1.971 4.103 4.394z"></path>
</svg>
<svg id="icon-check" width="32" height="32" viewBox="0 0 32 32" x="96" y="0">
<path d="M13.562 23.027l-7.819-7.944 1.368-1.347 6.461 6.565 11.328-11.328 1.357 1.357z"></path>
</svg>
<svg id="icon-close" width="32" height="32" viewBox="0 0 32 32" x="144" y="0">
<path d="M22.273 23.791l-13.973-13.973 1.414-1.414 13.973 13.973z"></path>
<path d="M9.551 23.806l-1.359-1.357 14.257-14.257 1.357 1.357z"></path>
</svg>
<svg id="icon-down-angle" width="32" height="32" viewBox="0 0 32 32" x="192" y="0">
<path d="M25.734 18.539l-1.446-1.417-3.779 4.034v-11.864c0-0.884-0.716-1.6-1.6-1.6v0h-12.644v2.024h11.59c0.353 0 0.64 0.287 0.64 0.64v0 10.841l-4.054-4.074-1.431 1.431 6.516 6.544z"></path>
</svg>
<svg id="icon-down-arrow" width="32" height="32" viewBox="0 0 32 32" x="240" y="0">
<path d="M14.837 25.158v-19.997h2.024v19.997z"></path>
<path d="M10.176 21.146l1.431-1.431 4.248 4.246 4.153-4.239 1.446 1.417-5.584 5.7z"></path>
</svg>
<svg id="icon-down-arrow-option-card" width="32" height="32" viewBox="0 0 32 32" x="288" y="0">
<path d="M8.048 12.024l7.952 7.952 7.952-7.952z"></path>
</svg>
<svg id="icon-e-mail" width="32" height="32" viewBox="0 0 32 32" x="336" y="0">
<path d="M8.651 24.164c-1.684-0.003-3.049-1.367-3.052-3.051v-10.227c0.003-1.684 1.368-3.049 3.052-3.051h14.696c1.685 0.002 3.051 1.368 3.052 3.053v10.223c-0.002 1.685-1.367 3.051-3.052 3.053h-0zM8.651 22.594h14.696c0 0 0.001 0 0.001 0 0.22 0 0.428-0.048 0.616-0.134l-0.009 0.004-5.94-5.619-1.477 1.39c-0.14 0.132-0.33 0.214-0.538 0.214s-0.398-0.081-0.539-0.214l0 0-1.719-1.616-5.745 5.821c0.191 0.097 0.416 0.154 0.654 0.154h0zM24.829 21.131v-10.243c0-0.001 0-0.002 0-0.003 0-0.142-0.020-0.279-0.058-0.408l0.003 0.010-5.615 5.28zM7.17 10.887v10.153l5.428-5.497-5.374-5.054c-0.035 0.119-0.054 0.255-0.054 0.396 0 0.001 0 0.001 0 0.002v-0zM15.997 16.585l1.394-1.312c0.014-0.019 0.030-0.036 0.046-0.053 0.037-0.039 0.078-0.074 0.121-0.105l0.003-0.002 6.046-5.685c-0.078-0.015-0.169-0.023-0.261-0.023h-14.696c-0.092 0-0.183 0.008-0.27 0.024l0.009-0.001 5.831 5.486c0.018 0.015 0.036 0.030 0.052 0.047l0.022 0.023z"></path>
</svg>
<svg id="icon-filter" width="32" height="32" viewBox="0 0 32 32" x="384" y="0">
<path d="M25.485 22.72h-18.971v-1.92h18.971z"></path>
<path d="M25.485 16.96h-18.971v-1.92h18.971z"></path>
<path d="M22.373 9.28c0.265 0.237 0.43 0.579 0.43 0.96s-0.166 0.723-0.429 0.959l-0.001 0.001h3.112v-1.92z"></path>
<path d="M20.202 10.56c0-0.483 0.162-0.929 0.434-1.285l-0.004 0.005h-14.118v1.92h14.118c-0.263-0.238-0.431-0.259-0.431-0.64z"></path>
<path d="M21.513 21.226c0.337 1.427-0.547 2.857-1.974 3.194s-2.857-0.547-3.194-1.974c-0.337-1.427 0.547-2.857 1.974-3.194s2.857 0.547 3.194 1.974z"></path>
<path d="M16.229 15.466c0.337 1.427-0.547 2.857-1.974 3.194s-2.857-0.547-3.194-1.974c-0.337-1.427 0.547-2.857 1.974-3.194s2.857 0.547 3.194 1.974z"></path>
<path d="M21.504 8.939c0.718 0.001 1.3 0.583 1.3 1.301s-0.583 1.301-1.301 1.301-1.301-0.583-1.301-1.301v0c0.001-0.719 0.584-1.301 1.302-1.301h0zM21.504 7.585c-1.467 0-2.656 1.189-2.656 2.656s1.189 2.656 2.656 2.656c1.467 0 2.656-1.189 2.656-2.656v0c0-1.467-1.189-2.656-2.656-2.656v0z"></path>
</svg>
<svg id="icon-left-angle" width="32" height="32" viewBox="0 0 32 32" x="432" y="0">
<path d="M13.856 26.129l1.417-1.446-4.034-3.779h11.865c0.884 0 1.6-0.716 1.6-1.6v0-12.644h-2.025v11.589c0 0.353-0.287 0.64-0.64 0.64v0h-10.841l4.074-4.053-1.431-1.431-6.545 6.516z"></path>
</svg>
<svg id="icon-left-arrow" width="32" height="32" viewBox="0 0 32 32" x="480" y="0">
<path d="M6.656 15.022h19.998v2.024h-19.998z"></path>
<path d="M10.669 10.361l1.431 1.431-4.247 4.248 4.239 4.152-1.417 1.446-5.7-5.583z"></path>
</svg>
<svg id="icon-left-arrow-option-card" width="32" height="32" viewBox="0 0 32 32" x="528" y="0">
<path d="M19.976 8.048l-7.952 7.952 7.952 7.952z"></path>
</svg>
<svg id="icon-locator" width="32" height="32" viewBox="0 0 32 32" x="576" y="0">
<path d="M15.991 10.695c0.881 0.001 1.594 0.715 1.594 1.596s-0.714 1.596-1.596 1.596c-0.001 0-0.001 0-0.002 0h0c-0.872-0.013-1.576-0.716-1.591-1.586l-0-0.001c0.002-0.88 0.712-1.595 1.59-1.604h0.005zM15.991 9.095h-0.004c-0 0-0.001 0-0.001 0-1.765 0-3.196 1.431-3.196 3.196s1.43 3.196 3.195 3.196h0.005c1.765 0 3.196-1.431 3.196-3.196s-1.431-3.196-3.196-3.196v0z"></path>
<path d="M15.824 6.404v0c0.717 0.008 1.402 0.132 2.041 0.355l-0.045-0.014c2.163 0.712 3.451 2.192 3.936 4.524 0.068 0.321 0.106 0.69 0.106 1.068 0 1.066-0.308 2.059-0.84 2.897l0.013-0.022c-0.899 1.557-1.805 3.143-2.681 4.677q-0.802 1.404-1.605 2.807-0.378 0.659-0.759 1.318l-0.221-0.382c-1.423-2.459-2.895-5.002-4.333-7.508l-0.064-0.111c-0.435-0.66-0.795-1.422-1.042-2.233l-0.016-0.063c-0.512-2.245 0.021-4.085 1.627-5.625 0.985-1.020 2.357-1.662 3.879-1.687l0.005-0zM15.824 4.804c-1.828 0-3.514 0.719-4.989 2.132-2.035 1.952-2.706 4.384-2.080 7.136 0.234 1.027 0.775 1.941 1.295 2.848q2.908 5.063 5.841 10.114c0.025 0.044 0.056 0.084 0.109 0.16 0.729-1.263 1.437-2.482 2.138-3.705 1.429-2.493 2.848-4.992 4.284-7.48 0.654-1.045 1.042-2.315 1.042-3.675 0-0.493-0.051-0.975-0.148-1.44l0.008 0.046c-0.592-2.835-2.253-4.811-5.004-5.716-0.743-0.261-1.601-0.415-2.493-0.422l-0.003-0z"></path>
</svg>
<svg id="icon-menu" width="32" height="32" viewBox="0 0 32 32" x="624" y="0">
<path d="M25.485 16.96h-14.021v-1.92h14.021z"></path>
<path d="M25.485 11.2h-18.971v-1.92h18.971z"></path>
<path d="M25.485 22.72h-18.971v-1.92h18.971z"></path>
</svg>
<svg id="icon-minus" width="32" height="32" viewBox="0 0 32 32" x="672" y="0">
<path d="M25.485 16.96h-18.971v-1.92h18.971z"></path>
</svg>
<svg id="icon-multiple-grid" width="32" height="32" viewBox="0 0 32 32" x="720" y="0">
<path d="M13.571 6.573v18.854h-5.572c-0.025 0-0.046-0.021-0.046-0.046v0-18.762c0-0.025 0.021-0.046 0.046-0.046v0h5.572zM15.445 4.699h-7.445c-1.060 0-1.92 0.86-1.92 1.92v0 18.762c0 1.060 0.86 1.92 1.92 1.92v0h7.445v-22.602z"></path>
<path d="M24.001 6.573c0.025 0 0.046 0.021 0.046 0.046v18.762c-0 0.025-0.021 0.046-0.046 0.046h-5.572v-18.854h5.572zM24.001 4.699h-7.446v22.602h7.446c1.060 0 1.92-0.86 1.92-1.92v0-18.762c0-1.060-0.86-1.92-1.92-1.92v0z"></path>
</svg>
<svg id="icon-plus" width="32" height="32" viewBox="0 0 32 32" x="0" y="48">
<path d="M25.485 17.034h-18.971v-1.92h18.971z"></path>
<path d="M16.96 26.080h-1.92v-20.16h1.92z"></path>
</svg>
<svg id="icon-right-angle" width="32" height="32" viewBox="0 0 32 32" x="48" y="48">
<path d="M18.144 6.155l-1.417 1.446 4.032 3.779h-11.863c-0.884 0-1.6 0.716-1.6 1.6v0 12.644h2.024v-11.59c0-0.353 0.287-0.64 0.64-0.64v0h10.842l-4.074 4.053 1.431 1.431 6.545-6.516z"></path>
</svg>
<svg id="icon-right-arrow" width="32" height="32" viewBox="0 0 32 32" x="96" y="48">
<path d="M24.973 16.978h-19.997v-2.024h19.997z"></path>
<path d="M20.96 21.639l-1.431-1.431 4.247-4.248-4.239-4.152 1.417-1.446 5.7 5.583z"></path>
</svg>
<svg id="icon-right-arrow-option-card" width="32" height="32" viewBox="0 0 32 32" x="144" y="48">
<path d="M12.024 23.952l7.952-7.952-7.952-7.952z"></path>
</svg>
<svg id="icon-search" width="32" height="32" viewBox="0 0 32 32" x="192" y="48">
<path d="M19.665 19.812c1.182-1.182 1.913-2.814 1.913-4.618 0-3.607-2.924-6.53-6.53-6.53s-6.53 2.924-6.53 6.53c0 1.803 0.731 3.436 1.913 4.618v0c1.182 1.182 2.814 1.913 4.618 1.913s3.436-0.731 4.618-1.913v0zM21.204 9.037c1.576 1.576 2.55 3.753 2.55 6.157 0 2.021-0.689 3.882-1.845 5.36l0.014-0.019c0.016 0.016 0.032 0.029 0.048 0.045l4.618 4.618-1.539 1.539-4.618-4.618c-0.016-0.015-0.030-0.031-0.044-0.047l-0.001-0.001c-1.459 1.142-3.319 1.83-5.341 1.83-4.809 0-8.707-3.898-8.707-8.707s3.898-8.707 8.707-8.707c2.404 0 4.581 0.975 6.157 2.55v0z"></path>
</svg>
<svg id="icon-share" width="32" height="32" viewBox="0 0 32 32" x="240" y="48">
<path d="M19.061 22.798l-7.147-4.507 1.022-1.62 7.147 4.506z"></path>
<path d="M20.133 10.863l-7.191 4.436-1.006-1.63 7.192-4.436z"></path>
<path d="M21.924 21.552c0 0 0 0 0 0 0.965 0 1.747 0.782 1.747 1.747s-0.782 1.747-1.747 1.747c-0.965 0-1.747-0.782-1.747-1.747 0-0 0-0 0-0v0c0.001-0.964 0.782-1.745 1.746-1.746h0zM21.924 19.735c-1.968 0-3.564 1.596-3.564 3.564s1.596 3.564 3.564 3.564 3.564-1.596 3.564-3.564v0c0-1.968-1.596-3.564-3.564-3.564-0 0-0 0-0 0v0z"></path>
<path d="M10.076 14.3c0.965 0 1.747 0.782 1.747 1.747s-0.782 1.747-1.747 1.747c-0.965 0-1.747-0.782-1.747-1.747v0c0.001-0.964 0.782-1.746 1.746-1.747h0zM10.076 12.482c-0 0-0 0-0 0-1.968 0-3.564 1.596-3.564 3.564s1.596 3.564 3.564 3.564c1.968 0 3.564-1.596 3.564-3.564v0c0-0 0-0 0-0 0-1.968-1.596-3.564-3.564-3.564v0z"></path>
<path d="M21.924 6.955c0.964 0 1.746 0.782 1.746 1.746s-0.782 1.746-1.746 1.746c-0.964 0-1.746-0.782-1.746-1.746v-0c0.001-0.964 0.782-1.745 1.746-1.747h0zM21.924 5.137c-1.968 0-3.564 1.596-3.564 3.564s1.596 3.564 3.564 3.564c1.968 0 3.564-1.595 3.564-3.563v-0c0-0 0-0 0-0 0-1.968-1.596-3.564-3.564-3.564-0 0-0 0-0 0h0z"></path>
</svg>
<svg id="icon-single-grid" width="32" height="32" viewBox="0 0 32 32" x="288" y="48">
<path d="M8 21.76v3.52h16v-3.52h-16zM6.080 19.84h19.84v5.44c0 1.060-0.86 1.92-1.92 1.92v0h-16c-1.060 0-1.92-0.86-1.92-1.92v0z"></path>
<path d="M8 6.72v10.24h16v-10.24h-16zM8 4.8h16c1.060 0 1.92 0.86 1.92 1.92v0 12.16h-19.84v-12.16c0-1.060 0.86-1.92 1.92-1.92v0z"></path>
</svg>
<svg id="icon-social-Facebook-full" width="32" height="32" viewBox="0 0 32 32" x="336" y="48">
<path d="M25.679 5.12h-19.357c-0.663 0-1.201 0.538-1.201 1.201v19.357c0 0.663 0.538 1.201 1.201 1.201h9.679v-8.613h-2.601v-3.173h2.601v-2.346c0-2.811 1.949-4.341 4.46-4.341 1.201 0 2.493 0.091 2.794 0.13v2.935h-2c-1.366 0-1.626 0.646-1.626 1.598v2.023h3.253l-0.426 3.173h-2.828v8.613h6.052c0.663-0 1.201-0.538 1.201-1.201v-19.357c-0-0.663-0.538-1.201-1.201-1.201h-0z"></path>
</svg>
<svg id="icon-social-Facebook" width="32" height="32" viewBox="0 0 32 32" x="384" y="48">
<path d="M18.396 5.616h3.675v5.434h-3.675c-0.088 0-0.16 0.072-0.16 0.16v0 2.074h4.060l-1.359 5.434h-2.699v7.667h-5.434v-7.667h-2.875v-5.434h2.875v-2.075c0-0.001 0-0.002 0-0.004 0-3.086 2.502-5.588 5.588-5.588 0.001 0 0.003 0 0.004 0h-0zM20.471 7.216h-2.075c-2.205 0-3.992 1.787-3.992 3.992v0 3.675h-2.875v2.234h2.875v7.667h2.234v-7.667h3.051l0.558-2.234h-3.61v-3.676c0-0.972 0.788-1.76 1.76-1.76v0h2.075z"></path>
</svg>
<svg id="icon-social-instagram-full" width="32" height="32" viewBox="0 0 32 32" x="432" y="48">
<path d="M25.573 12.026c-0.073-1.544-0.426-2.912-1.557-4.039s-2.496-1.48-4.039-1.557c-1.592-0.090-6.362-0.090-7.953 0-1.54 0.073-2.908 0.426-4.039 1.552s-1.48 2.496-1.557 4.040c-0.090 1.592-0.090 6.362 0 7.954 0.073 1.543 0.426 2.912 1.557 4.039s2.496 1.48 4.039 1.557c1.592 0.090 6.362 0.090 7.953 0 1.544-0.073 2.912-0.426 4.039-1.557s1.48-2.496 1.557-4.039c0.090-1.592 0.090-6.358 0-7.949zM16.002 20.943c-2.73 0-4.942-2.213-4.942-4.942s2.213-4.942 4.942-4.942v0h0.015c2.726 0.004 4.935 2.215 4.935 4.942 0 2.73-2.213 4.942-4.942 4.942-0.003 0-0.005 0-0.008 0h0zM22.3 10.856c-0.001 0.634-0.516 1.148-1.15 1.148s-1.15-0.515-1.15-1.15 0.515-1.15 1.15-1.15c0.634 0 1.149 0.514 1.15 1.148v0z"></path>
<path d="M16.003 12.788c-0 0-0 0-0 0-1.775 0-3.213 1.439-3.213 3.213s1.439 3.213 3.213 3.213c1.775 0 3.213-1.439 3.213-3.213 0-0 0-0 0-0v0c-0-1.774-1.439-3.212-3.213-3.213h-0z"></path>
</svg>
<svg id="icon-social-Instagram" width="32" height="32" viewBox="0 0 32 32" x="480" y="48">
<path d="M16.002 11.326c-2.73 0-4.942 2.213-4.942 4.942s2.213 4.942 4.942 4.942c2.73 0 4.942-2.213 4.942-4.942v0c0-0.002 0-0.005 0-0.008 0-2.725-2.209-4.935-4.935-4.935-0.003 0-0.005 0-0.008 0h0zM16.002 19.482c-1.775 0-3.213-1.439-3.213-3.213s1.439-3.213 3.213-3.213c1.774 0 3.213 1.438 3.213 3.213v0c-0.003 1.773-1.44 3.21-3.213 3.213h-0zM22.3 11.124c0 0.636-0.516 1.152-1.152 1.152s-1.152-0.516-1.152-1.152c0-0.636 0.516-1.152 1.152-1.152v0c0.001 0 0.001 0 0.002 0 0.635 0 1.15 0.515 1.15 1.15 0 0.001 0 0.001 0 0.002v-0zM25.573 12.294c-0.073-1.544-0.426-2.912-1.557-4.039s-2.496-1.48-4.039-1.557c-1.592-0.090-6.362-0.090-7.954 0-1.54 0.073-2.908 0.426-4.039 1.552s-1.48 2.496-1.557 4.040c-0.090 1.592-0.090 6.362 0 7.954 0.073 1.543 0.426 2.912 1.557 4.039s2.496 1.48 4.039 1.557c1.592 0.090 6.362 0.090 7.954 0 1.544-0.073 2.912-0.426 4.039-1.557s1.48-2.496 1.557-4.039c0.090-1.592 0.090-6.358 0-7.949zM23.517 21.951c-0.338 0.841-0.992 1.494-1.81 1.825l-0.022 0.008c-1.269 0.503-4.28 0.387-5.682 0.387s-4.418 0.112-5.682-0.387c-0.841-0.338-1.494-0.992-1.825-1.81l-0.008-0.022c-0.503-1.269-0.387-4.28-0.387-5.682s-0.112-4.418 0.387-5.683c0.338-0.841 0.992-1.494 1.81-1.825l0.022-0.008c1.269-0.503 4.28-0.387 5.682-0.387s4.418-0.112 5.682 0.387c0.841 0.338 1.495 0.992 1.825 1.81l0.008 0.022c0.503 1.269 0.387 4.28 0.387 5.682s0.116 4.418-0.387 5.683z"></path>
</svg>
<svg id="icon-social-Pinterest-full" width="32" height="32" viewBox="0 0 32 32" x="528" y="48">
<path d="M16.003 5.12c-0.001 0-0.003 0-0.005 0-6.008 0-10.878 4.87-10.878 10.878 0 4.429 2.647 8.24 6.446 9.937l0.069 0.028c-0.009-0.157-0.014-0.341-0.014-0.525 0-0.698 0.074-1.378 0.215-2.034l-0.011 0.063c0.209-0.884 1.399-5.929 1.399-5.929-0.221-0.491-0.35-1.065-0.35-1.669 0-0.018 0-0.036 0-0.053l-0 0.003c0-1.612 0.933-2.816 2.099-2.816 0.992 0 1.467 0.743 1.467 1.632 0 0.996-0.636 2.482-0.962 3.86-0.033 0.124-0.052 0.267-0.052 0.414 0 0.929 0.753 1.682 1.682 1.682 0.031 0 0.063-0.001 0.094-0.003l-0.004 0c2.060 0 3.449-2.646 3.449-5.784 0-2.384-1.608-4.166-4.528-4.166-3.299 0-5.359 2.462-5.359 5.211-0.002 0.039-0.003 0.085-0.003 0.13 0 0.763 0.273 1.463 0.726 2.007l-0.004-0.005c0.119 0.098 0.194 0.245 0.194 0.41 0 0.071-0.014 0.139-0.039 0.201l0.001-0.004c-0.053 0.199-0.17 0.68-0.224 0.874-0.029 0.18-0.184 0.315-0.369 0.315-0.064 0-0.124-0.016-0.177-0.044l0.002 0.001c-1.521-0.621-2.23-2.282-2.23-4.157 0-3.088 2.609-6.794 7.778-6.794 4.154 0 6.889 3.006 6.889 6.23 0 4.268-2.376 7.454-5.874 7.454-1.176 0-2.278-0.636-2.656-1.355 0 0-0.632 2.506-0.768 2.991-0.275 0.887-0.647 1.659-1.115 2.362l0.021-0.033c0.925 0.284 1.988 0.448 3.090 0.448 6.009 0 10.88-4.871 10.88-10.88s-4.871-10.88-10.88-10.88c0 0-0 0-0 0v0z"></path>
</svg>
<svg id="icon-social-Pinterest" width="32" height="32" viewBox="0 0 32 32" x="576" y="48">
<path d="M16.509 5.416c-4.351 0-8.652 2.901-8.652 7.596 0 2.986 1.679 4.682 2.697 4.682 0.42 0 0.662-1.171 0.662-1.501 0-0.395-1.005-1.234-1.005-2.876 0-3.41 2.596-5.827 5.955-5.827 2.888 0 5.026 1.641 5.026 4.657 0 2.252-0.903 6.476-3.83 6.476-0.023 0.001-0.049 0.002-0.076 0.002-1.031 0-1.869-0.829-1.883-1.856v-0.001c0-1.603 1.12-3.155 1.12-4.809 0-2.808-3.982-2.299-3.982 1.094-0.002 0.052-0.003 0.112-0.003 0.173 0 0.714 0.15 1.393 0.421 2.008l-0.013-0.032c-0.585 2.519-1.781 6.272-1.781 8.868 0 0.8 0.115 1.59 0.192 2.392 0.144 0.16 0.072 0.144 0.292 0.064 2.138-2.926 2.061-3.499 3.028-7.328 0.522 0.992 1.87 1.527 2.939 1.527 4.504 0 6.528-4.389 6.528-8.346-0.001-4.212-3.64-6.961-7.635-6.961z"></path>
</svg>
<svg id="icon-social-Twitter-full" width="32" height="32" viewBox="0 0 32 32" x="624" y="48">
<path d="M26.24 7.657c-0.838 0.598-1.809 1.083-2.851 1.405l-0.072 0.019c-0.769-0.88-1.893-1.433-3.147-1.433-2.303 0-4.171 1.867-4.171 4.171 0 0.020 0 0.039 0 0.059l-0-0.003v0.93c-0.077 0.002-0.167 0.003-0.258 0.003-3.344 0-6.302-1.654-8.1-4.189l-0.021-0.031s-3.724 8.378 4.655 12.102c-1.705 1.171-3.814 1.87-6.086 1.87-0.152 0-0.302-0.003-0.452-0.009l0.021 0.001c8.378 4.655 18.618 0 18.618-10.706-0.001-0.274-0.028-0.541-0.079-0.799l0.004 0.027c0.923-0.911 1.601-2.069 1.926-3.367l0.011-0.050z"></path>
</svg>
<svg id="icon-social-Twitter" width="32" height="32" viewBox="0 0 32 32" x="672" y="48">
<path d="M20.013 7.16c0 0 0.001 0 0.001 0 1.255 0 2.398 0.48 3.255 1.268l-0.003-0.003c0.813-0.297 1.517-0.671 2.158-1.128l-0.027 0.019c0.128-0.091 0.288-0.146 0.461-0.146 0.442 0 0.8 0.358 0.8 0.8 0 0.067-0.008 0.131-0.023 0.193l0.001-0.005c-0.326 1.313-0.951 2.45-1.799 3.378l0.005-0.006c0.016 0.156 0.024 0.312 0.024 0.468t0 0.003c0 0.042 0.001 0.092 0.001 0.141 0 1.889-0.364 3.692-1.027 5.344l0.034-0.097c-0.639 1.583-1.551 2.932-2.688 4.053l-0.001 0.001c-1.089 1.067-2.389 1.924-3.831 2.5l-0.079 0.028c-1.36 0.549-2.937 0.867-4.588 0.867-0.016 0-0.032-0-0.048-0h0.002c-1.233-0.002-2.427-0.167-3.562-0.475l0.096 0.022c-1.301-0.348-2.438-0.819-3.495-1.417l0.074 0.038c-0.247-0.139-0.411-0.4-0.411-0.699 0-0.442 0.358-0.8 0.8-0.8 0.011 0 0.022 0 0.033 0.001l-0.002-0c0.128 0.005 0.256 0.008 0.384 0.008 1.525-0 2.967-0.354 4.249-0.985l-0.057 0.025c-0.83-0.492-1.544-1.064-2.169-1.723l-0.004-0.005c-0.767-0.818-1.37-1.8-1.748-2.887l-0.017-0.057c-0.299-0.92-0.471-1.978-0.471-3.076 0-0.813 0.094-1.604 0.273-2.363l-0.014 0.070c0.12-0.564 0.254-1.038 0.415-1.499l-0.026 0.085c0.049-0.143 0.099-0.278 0.148-0.402 0.016-0.040 0.032-0.078 0.045-0.112l0.013-0.032c0.124-0.29 0.408-0.49 0.738-0.49 0.27 0 0.508 0.133 0.653 0.338l0.002 0.002c1.5 2.115 3.874 3.526 6.585 3.704l0.026 0.001v-0.077c-0-0.017-0-0.038-0-0.059 0-2.659 2.155-4.815 4.814-4.815h0zM23.044 10.14c0 0-0 0-0 0-0.241 0-0.456-0.106-0.603-0.274l-0.001-0.001c-0.593-0.679-1.459-1.105-2.426-1.105-1.776 0-3.215 1.439-3.215 3.215 0 0.015 0 0.030 0 0.045l-0-0.002q0 0.005 0 0.011v0.896c0 0 0 0 0 0 0 0.434-0.346 0.788-0.778 0.8l-0.001 0c-0.089 0.002-0.18 0.004-0.269 0.004-2.952-0.002-5.616-1.238-7.502-3.22l-0.004-0.004c-0.192 0.731-0.302 1.571-0.302 2.436 0 0.148 0.003 0.296 0.010 0.443l-0.001-0.021c0.151 2.916 1.762 5.077 4.788 6.422 0.282 0.128 0.475 0.407 0.475 0.731 0 0.274-0.138 0.516-0.348 0.66l-0.003 0.002c-0.865 0.595-1.864 1.086-2.931 1.422l-0.079 0.022q-0.264 0.081-0.531 0.149 0.128 0.037 0.258 0.071c0.918 0.252 1.972 0.398 3.059 0.4h0.001c0.041 0.001 0.090 0.001 0.138 0.001 2.831 0 5.401-1.12 7.289-2.942l-0.003 0.003c0.985-0.971 1.773-2.139 2.301-3.441l0.025-0.069c0.555-1.378 0.876-2.977 0.876-4.65 0-0.049-0-0.098-0.001-0.147l0 0.007c-0.001-0.211-0.022-0.417-0.061-0.616l0.003 0.021c-0.009-0.045-0.014-0.097-0.014-0.15 0-0.223 0.091-0.424 0.238-0.569l0-0c0.274-0.27 0.521-0.565 0.74-0.882l0.013-0.020q-0.448 0.181-0.912 0.32c-0.069 0.022-0.148 0.035-0.23 0.035h-0z"></path>
</svg>
<svg id="icon-social-Whatsapp-full" width="32" height="32" viewBox="0 0 32 32" x="720" y="48">
<path d="M16.197 5.12c-0.012-0-0.027-0-0.041-0-5.863 0-10.618 4.741-10.641 10.598v0.002c0 0.004 0 0.008 0 0.012 0 2.019 0.57 3.905 1.559 5.505l-0.026-0.045-1.928 5.688 5.914-1.879c1.485 0.83 3.258 1.319 5.146 1.319 5.874 0 10.642-4.733 10.7-10.593l0-0.005c-0.023-5.86-4.778-10.601-10.641-10.601-0.015 0-0.029 0-0.044 0h0.002zM21.509 19.744c-0.251 0.623-1.388 1.192-1.888 1.218s-0.515 0.388-3.246-0.798-4.376-4.071-4.505-4.257-1.058-1.508-1.008-2.839c0.019-0.886 0.416-1.676 1.036-2.218l0.004-0.003c0.189-0.191 0.45-0.31 0.74-0.311h0c0.215-0.004 0.354-0.006 0.512 0s0.398-0.032 0.605 0.517 0.701 1.902 0.765 2.039c0.040 0.070 0.063 0.153 0.063 0.242 0 0.085-0.022 0.165-0.059 0.236l0.001-0.003c-0.080 0.169-0.176 0.314-0.29 0.443l0.002-0.002c-0.142 0.153-0.3 0.342-0.427 0.459-0.142 0.128-0.29 0.271-0.141 0.547 0.404 0.74 0.886 1.375 1.447 1.93l0.001 0.001c0.607 0.578 1.315 1.056 2.095 1.405l0.047 0.019c0.268 0.146 0.428 0.13 0.594-0.045s0.711-0.765 0.903-1.028 0.372-0.212 0.619-0.113 1.562 0.804 1.83 0.95 0.448 0.22 0.512 0.335c0.012 0.087 0.019 0.188 0.019 0.291 0 0.36-0.085 0.7-0.235 1.001l0.006-0.013z"></path>
</svg>
<svg id="icon-social-Whatsapp" width="32" height="32" viewBox="0 0 32 32" x="0" y="96">
<path d="M20.985 18.16c-0.273-0.136-1.602-0.786-1.85-0.876s-0.429-0.136-0.61 0.136-0.699 0.874-0.856 1.053-0.316 0.19-0.586 0.068c-0.839-0.339-1.56-0.793-2.186-1.353l0.007 0.006c-0.581-0.541-1.080-1.158-1.483-1.839l-0.021-0.038c-0.158-0.272-0.017-0.421 0.118-0.557 0.123-0.123 0.273-0.313 0.409-0.474 0.101-0.13 0.191-0.278 0.263-0.435l0.006-0.014c0.031-0.063 0.050-0.138 0.050-0.217 0-0.096-0.027-0.185-0.074-0.261l0.001 0.002c-0.068-0.136-0.608-1.469-0.836-2-0.218-0.53-0.442-0.462-0.608-0.462-0.156-0.013-0.336-0.013-0.518-0.013-0.286 0.007-0.543 0.13-0.724 0.325l-0.001 0.001c-0.584 0.553-0.948 1.334-0.948 2.2 0 0.016 0 0.031 0 0.047l-0-0.002c0 1.319 0.97 2.598 1.105 2.788 0.135 0.177 1.908 2.897 4.624 4.067 0.647 0.272 1.152 0.435 1.545 0.57 0.325 0.102 0.699 0.161 1.087 0.161 0.218 0 0.432-0.019 0.64-0.054l-0.022 0.003c0.52-0.083 1.602-0.654 1.828-1.293 0.123-0.269 0.195-0.584 0.195-0.915 0-0.133-0.012-0.264-0.034-0.39l0.002 0.013c-0.067-0.122-0.245-0.192-0.517-0.313zM16.055 24.84h-0.014c-1.691-0.002-3.273-0.467-4.627-1.274l0.042 0.023-0.326-0.194-3.398 0.884 0.911-3.305-0.217-0.34c-0.849-1.348-1.354-2.987-1.354-4.744 0-4.966 4.026-8.992 8.992-8.992 2.488 0 4.739 1.010 6.367 2.643l0 0c1.629 1.61 2.637 3.844 2.637 6.313 0 0.008 0 0.016-0 0.024v-0.001c-0.022 4.956-4.045 8.964-9.003 8.964-0.002 0-0.004 0-0.006 0h0zM23.725 8.247c-1.981-1.934-4.693-3.127-7.684-3.127h-0c-0.015-0-0.032-0-0.049-0-5.954 0-10.78 4.826-10.78 10.78 0 1.986 0.537 3.846 1.474 5.444l-0.028-0.051-1.538 5.587 5.744-1.498c1.497 0.823 3.28 1.309 5.176 1.312h0.006c0.003 0 0.005 0 0.008 0 5.965 0 10.803-4.824 10.826-10.783v-0.002c0-0.009 0-0.019 0-0.029 0-2.971-1.211-5.659-3.167-7.596l-0.001-0.001z"></path>
</svg>
<svg id="icon-social-Youtube-full" width="32" height="32" viewBox="0 0 32 32" x="48" y="96">
<path d="M15.999 23.093c-0.064 0-6.332-0.005-7.891-0.422-0.862-0.24-1.53-0.901-1.775-1.742l-0.005-0.018c-0.269-1.465-0.423-3.151-0.423-4.873s0.154-3.408 0.448-5.045l-0.026 0.172c0.228-0.889 0.901-1.58 1.761-1.831l0.018-0.005c1.559-0.416 7.828-0.422 7.891-0.422s6.332 0.004 7.892 0.386c0.878 0.256 1.551 0.947 1.777 1.818l0.004 0.018c0.268 1.46 0.421 3.139 0.421 4.855s-0.153 3.395-0.446 5.026l0.026-0.171c-0.229 0.889-0.902 1.579-1.763 1.829l-0.018 0.005c-1.559 0.416-7.829 0.42-7.892 0.42zM13.935 13.017v0 6.002l5.276-3-5.276-3.002z"></path>
</svg>
<svg id="icon-social-Youtube" width="32" height="32" viewBox="0 0 32 32" x="96" y="96">
<path d="M16 8.106c0.016 0 1.61 0 3.376 0.048 2.447 0.066 3.986 0.184 4.706 0.36l0.028 0.007c1.154 0.336 2.039 1.243 2.335 2.388l0.005 0.023q0.006 0.026 0.011 0.052c0.277 1.465 0.435 3.15 0.435 4.872 0 0.057-0 0.114-0.001 0.171l0-0.009c0 0.027 0 0.058 0 0.089 0 1.722-0.158 3.406-0.461 5.040l0.026-0.169q-0.005 0.026-0.011 0.052c-0.301 1.167-1.185 2.075-2.315 2.405l-0.024 0.006-0.011 0.003c-0.724 0.194-2.268 0.323-4.721 0.396-1.767 0.052-3.362 0.053-3.378 0.053s-1.611 0-3.378-0.053c-2.453-0.074-3.998-0.204-4.722-0.398h-0.004c-1.133-0.317-2.010-1.186-2.333-2.292l-0.006-0.024q-0.011-0.038-0.018-0.077c-0.277-1.465-0.435-3.15-0.435-4.872 0-0.057 0-0.114 0.001-0.17l-0 0.009c-0-0.036-0-0.079-0-0.123 0-1.722 0.158-3.408 0.462-5.042l-0.026 0.169q0.005-0.026 0.011-0.052c0.301-1.167 1.184-2.075 2.314-2.405l0.024-0.006 0.011-0.003c0.725-0.193 2.269-0.323 4.721-0.396 1.767-0.053 3.364-0.053 3.378-0.053zM23.687 10.065c-1.241-0.295-5.965-0.359-7.688-0.359s-6.46 0.071-7.68 0.394c-0.592 0.175-1.047 0.637-1.207 1.222l-0.003 0.012c-0.257 1.37-0.404 2.947-0.404 4.557 0 0.043 0 0.086 0 0.129l-0-0.007q0 0.004 0 0.009c-0 0.046-0 0.101-0 0.156 0 1.607 0.146 3.179 0.427 4.705l-0.024-0.159c0.181 0.571 0.631 1.009 1.197 1.17l0.012 0.003c1.216 0.324 5.957 0.394 7.683 0.394s6.46-0.071 7.68-0.394c0.592-0.175 1.047-0.637 1.207-1.222l0.003-0.012c0.257-1.37 0.404-2.946 0.404-4.557 0-0.031-0-0.061-0-0.092v0.005q0-0.004 0-0.008c0-0.047 0-0.102 0-0.157 0-1.611-0.147-3.188-0.429-4.717l0.024 0.159c-0.163-0.594-0.614-1.055-1.19-1.228l-0.012-0.003z"></path>
<path d="M13.935 19.819c-0.442 0-0.8-0.358-0.8-0.8v0-6.002c0-0.442 0.358-0.8 0.8-0.8 0.145 0 0.282 0.039 0.399 0.107l-0.004-0.002 5.276 3.001c0.243 0.14 0.404 0.399 0.404 0.695s-0.161 0.555-0.401 0.693l-0.004 0.002-5.276 3.001c-0.114 0.066-0.25 0.105-0.396 0.105v0zM14.735 14.393v3.251l2.858-1.626z"></path>
</svg>
<svg id="icon-trash" width="32" height="32" viewBox="0 0 32 32" x="144" y="96">
<path d="M22.426 9.404l-0.963 15.925h-10.913l-0.975-15.925h12.851zM23.226 7.484h-14.45c-0.645 0-1.168 0.523-1.168 1.168 0 0.025 0.001 0.050 0.002 0.075l-0-0.003 1.026 16.755c0.080 0.994 0.906 1.771 1.914 1.771 0 0 0 0 0 0h10.912c1.009-0 1.835-0.778 1.914-1.766l0-0.007 1.015-16.754c0.001-0.021 0.002-0.046 0.002-0.070 0-0.645-0.523-1.168-1.168-1.168v0z"></path>
<path d="M25.866 9.404c0-1.060-0.86-1.92-1.92-1.92v0h-15.921c-1.060 0-1.92 0.86-1.92 1.92v0z"></path>
<path d="M18.454 6.35v1.198h-4.822v-1.198h4.822zM18.646 4.75h-5.206c-0.778 0-1.408 0.63-1.408 1.408v0 1.585c0 0.778 0.63 1.408 1.408 1.408v0h5.207c0.778 0 1.408-0.63 1.408-1.408v0-1.586c0-0.778-0.63-1.408-1.408-1.408v0z"></path>
<path d="M18.134 11.204h1.92v11.89h-1.92v-11.89z"></path>
<path d="M15.040 11.204h1.92v11.89h-1.92v-11.89z"></path>
<path d="M12.045 11.204h1.92v11.89h-1.92v-11.89z"></path>
</svg>
<svg id="icon-up-angle" width="32" height="32" viewBox="0 0 32 32" x="192" y="96">
<path d="M6.266 14.25l1.446 1.417 3.779-4.032v11.862c0 0.884 0.716 1.6 1.6 1.6v0h12.643v-2.024h-11.59c-0.353 0-0.64-0.287-0.64-0.64v0-10.841l4.054 4.074 1.431-1.431-6.516-6.544z"></path>
</svg>
<svg id="icon-up-arrow" width="32" height="32" viewBox="0 0 32 32" x="240" y="96">
<path d="M16.793 6.842v19.997h-2.024v-19.997z"></path>
<path d="M21.454 10.854l-1.431 1.431-4.247-4.246-4.154 4.239-1.446-1.417 5.584-5.7z"></path>
</svg>
<svg id="icon-up-arrow-option-card" width="32" height="32" viewBox="0 0 32 32" x="288" y="96">
<path d="M23.952 19.976l-7.952-7.952-7.952 7.952z"></path>
</svg>
<svg id="icon-wish" width="32" height="32" viewBox="0 0 32 32" x="336" y="96">
<path d="M17.133 9.512l0.002-0.002c1.054-1.094 2.534-1.775 4.173-1.775 3.199 0 5.792 2.593 5.792 5.792 0 1.634-0.676 3.11-1.766 4.164l-9.319 9.292-9.347-9.318c-1.018-1.044-1.645-2.47-1.645-4.042 0-3.198 2.592-5.79 5.79-5.79 1.579 0 3.010 0.632 4.054 1.656l1.146 1.143zM15.987 23.982l5.204-5.189 1.53-1.472 1.12-1.116c0.686-0.67 1.112-1.604 1.112-2.638 0-2.035-1.65-3.685-3.685-3.685-1.002 0-1.91 0.4-2.574 1.048l0.001-0.001c-0.024 0.023-0.048 0.047-0.071 0.071l-2.61 2.602-0.008-0.008-2.629-2.621c-0.667-0.669-1.59-1.083-2.609-1.083-2.035 0-3.685 1.65-3.685 3.685 0 1.016 0.411 1.936 1.076 2.602l-0-0 2.679 2.67z"></path>
</svg>
<svg id="icon-phone" width="32" height="32" viewBox="0 0 32 32" x="384" y="96">
<path d="M24.37 26.911c-0.085 0-0.17-0.004-0.256-0.012h-0.014c-3.423-0.382-6.515-1.538-9.182-3.288l0.079 0.049c-2.565-1.647-4.682-3.765-6.28-6.248l-0.049-0.082c-1.706-2.6-2.862-5.707-3.228-9.052l-0.008-0.093q0-0.006 0-0.012c-0.007-0.076-0.011-0.165-0.011-0.255 0-1.561 1.264-2.827 2.825-2.829h3.066c1.422 0 2.6 1.050 2.799 2.417l0.002 0.015v0.007c0.135 1 0.368 1.902 0.694 2.759l-0.028-0.084c0.114 0.295 0.179 0.636 0.179 0.993 0 0.776-0.312 1.48-0.817 1.992l-0.852 0.852c1.272 2.023 2.934 3.685 4.893 4.919l0.064 0.038 0.852-0.852c0.511-0.505 1.214-0.818 1.989-0.818 0.357 0 0.699 0.066 1.014 0.187l-0.019-0.007c0.773 0.299 1.675 0.532 2.612 0.659l0.063 0.007h0.007c1.383 0.201 2.433 1.379 2.433 2.801 0 0.021-0 0.042-0.001 0.063l0-0.003v3.034c0 0.003 0 0.006 0 0.010 0 1.563-1.267 2.829-2.829 2.829 0 0 0 0-0 0v0zM24.265 25.306c0.035 0.003 0.070 0.004 0.104 0.004 0 0 0 0 0 0 0.679 0 1.229-0.55 1.229-1.229 0-0.002 0-0.004 0-0.005v0s0-0.002 0-0.003v-3.044q0-0.010 0-0.020c0-0.009 0-0.020 0-0.031 0-0.617-0.455-1.128-1.048-1.216l-0.007-0.001c-1.129-0.152-2.149-0.415-3.117-0.783l0.095 0.032h-0.002c-0.128-0.050-0.277-0.079-0.433-0.079-0.336 0-0.641 0.135-0.863 0.354l-1.287 1.287c-0.145 0.144-0.345 0.234-0.565 0.234-0.145 0-0.281-0.039-0.399-0.106l0.004 0.002c-2.68-1.544-4.846-3.709-6.345-6.308l-0.044-0.082c-0.066-0.114-0.104-0.25-0.104-0.395 0-0.221 0.089-0.42 0.234-0.565v0l1.287-1.287c0.218-0.222 0.353-0.527 0.353-0.864 0-0.155-0.029-0.303-0.081-0.44l0.003 0.008v-0.002c-0.337-0.873-0.601-1.892-0.745-2.95l-0.008-0.072c-0.088-0.6-0.599-1.055-1.216-1.056h-3.067c-0.678 0.002-1.226 0.552-1.226 1.229 0 0.037 0.002 0.074 0.005 0.111l-0-0.005c0.347 3.173 1.415 6.041 3.036 8.513l-0.045-0.073 0.004 0.006c1.52 2.368 3.475 4.322 5.768 5.797l0.075 0.045 0.006 0.004c2.388 1.57 5.241 2.637 8.312 2.982l0.088 0.008z"></path>
</svg>
<svg id="icon-phone-full" width="32" height="32" viewBox="0 0 32 32" x="432" y="96">
<path d="M26.399 21.029v3.044c0 0.002 0 0.005 0 0.008 0 1.121-0.909 2.029-2.029 2.029-0.064 0-0.128-0.003-0.191-0.009l0.008 0.001c-3.293-0.367-6.267-1.479-8.833-3.162l0.076 0.047c-2.467-1.584-4.504-3.621-6.041-6.010l-0.047-0.078c-1.642-2.501-2.755-5.49-3.107-8.708l-0.008-0.090c-0.005-0.055-0.008-0.118-0.008-0.183 0-1.12 0.907-2.028 2.026-2.029h3.044c0.006-0 0.013-0 0.020-0 1.021 0 1.865 0.753 2.008 1.734l0.001 0.011c0.143 1.065 0.392 2.028 0.74 2.941l-0.030-0.089c0.082 0.212 0.13 0.458 0.13 0.714 0 0.556-0.224 1.061-0.587 1.427l-1.288 1.288c1.471 2.554 3.535 4.618 6.011 6.047l0.078 0.042 1.289-1.289c0.366-0.363 0.871-0.586 1.427-0.586 0.257 0 0.502 0.048 0.728 0.134l-0.014-0.005c0.824 0.318 1.786 0.567 2.784 0.703l0.067 0.008c0.992 0.144 1.746 0.989 1.746 2.010 0 0.018-0 0.035-0.001 0.053l0-0.003z"></path>
</svg>
<svg id="icon-current-location" width="32" height="32" viewBox="0 0 32 32" x="480" y="96">
<path d="M16 12.044c-2.185 0-3.956 1.771-3.956 3.956s1.771 3.956 3.956 3.956c2.185 0 3.956-1.771 3.956-3.956v0c0-0 0-0.001 0-0.001 0-2.184-1.771-3.955-3.955-3.955-0 0-0.001 0-0.001 0h0zM24.843 15.011c-0.475-4.132-3.721-7.378-7.812-7.85l-0.041-0.004v-2.037h-1.978v2.037c-4.132 0.475-7.378 3.721-7.85 7.812l-0.004 0.041h-2.037v1.978h2.037c0.475 4.132 3.721 7.378 7.812 7.85l0.041 0.004v2.037h1.978v-2.037c4.132-0.475 7.378-3.721 7.85-7.812l0.004-0.041h2.037v-1.978zM16 22.924c-3.824 0-6.924-3.1-6.924-6.924s3.1-6.924 6.924-6.924c3.824 0 6.924 3.1 6.924 6.924v0c0 0.001 0 0.003 0 0.005 0 3.821-3.098 6.919-6.919 6.919-0.002 0-0.003 0-0.005 0h0z"></path>
</svg>
<svg id="icon-zoom-in" width="32" height="32" viewBox="0 0 32 32" x="528" y="96">
<path d="M19.665 19.812c1.182-1.182 1.913-2.814 1.913-4.618 0-3.607-2.924-6.53-6.53-6.53s-6.53 2.924-6.53 6.53c0 1.803 0.731 3.436 1.913 4.618v0c1.182 1.182 2.814 1.913 4.618 1.913s3.436-0.731 4.618-1.913v0zM21.204 9.037c1.576 1.576 2.55 3.753 2.55 6.157 0 2.021-0.689 3.882-1.845 5.36l0.014-0.019c0.016 0.016 0.032 0.029 0.048 0.045l4.618 4.618-1.539 1.539-4.618-4.618c-0.016-0.015-0.030-0.031-0.044-0.047l-0.001-0.001c-1.459 1.142-3.319 1.83-5.341 1.83-4.809 0-8.707-3.898-8.707-8.707s3.898-8.707 8.707-8.707c2.404 0 4.581 0.975 6.157 2.55v0z"></path>
<path d="M18.607 16.216h-7.136v-1.586h7.136z"></path>
<path d="M15.868 19.151h-1.586v-7.582h1.586z"></path>
</svg>
<svg id="icon-zoom-out" width="32" height="32" viewBox="0 0 32 32" x="576" y="96">
<path d="M19.665 19.812c1.182-1.182 1.913-2.814 1.913-4.618 0-3.607-2.924-6.53-6.53-6.53s-6.53 2.924-6.53 6.53c0 1.803 0.731 3.436 1.913 4.618v0c1.182 1.182 2.814 1.913 4.618 1.913s3.436-0.731 4.618-1.913v0zM21.204 9.037c1.576 1.576 2.55 3.753 2.55 6.157 0 2.021-0.689 3.882-1.845 5.36l0.014-0.019c0.016 0.016 0.032 0.029 0.048 0.045l4.618 4.618-1.539 1.539-4.618-4.618c-0.016-0.015-0.030-0.031-0.044-0.047l-0.001-0.001c-1.459 1.142-3.319 1.83-5.341 1.83-4.809 0-8.707-3.898-8.707-8.707s3.898-8.707 8.707-8.707c2.404 0 4.581 0.975 6.157 2.55v0z"></path>
<path d="M18.607 16.216h-7.136v-1.586h7.136z"></path>
</svg>
<svg id="icon-try-them" width="32" height="32" viewBox="0 0 32 32" x="624" y="96">
<path d="M21.751 17.792v0c0.969 0 1.903 0.149 2.78 0.424l-0.066-0.018v1.452l0.012 0.107c0.008 0.073 0.182 1.792-1.383 2.276l-0.367 0.114-0.011 0.009c-0.238 0.031-0.512 0.048-0.791 0.048-0.032 0-0.064-0-0.096-0.001l0.005 0c-0.364 0-0.782-0.017-1.243-0.051-1.236-0.091-1.734-1.363-1.83-1.647-0.085-0.368-0.133-0.791-0.133-1.225 0-0.344 0.031-0.682 0.089-1.009l-0.005 0.035c0.903-0.326 1.944-0.515 3.030-0.515 0.004 0 0.007 0 0.011 0h-0.001zM21.751 15.871c-0.038-0.001-0.082-0.001-0.127-0.001-1.548 0-3.017 0.34-4.336 0.95l0.064-0.027c-1.118 1.376-0.446 4.217-0.446 4.217s0.811 2.856 3.544 3.057c0.547 0.040 1.003 0.056 1.384 0.056 1.522 0 1.83-0.256 1.83-0.256 3.1-0.962 2.722-4.324 2.722-4.324v-2.675c-1.362-0.628-2.955-0.995-4.634-0.998h-0.001z"></path>
<path d="M10.249 17.792c0.002 0 0.005 0 0.007 0 1.086 0 2.128 0.189 3.094 0.535l-0.064-0.020c0.055 0.295 0.086 0.634 0.086 0.981 0 0.436-0.050 0.861-0.143 1.268l0.007-0.038c-0.073 0.216-0.576 1.545-1.828 1.637-0.461 0.034-0.879 0.051-1.243 0.051-0.027 0-0.060 0.001-0.092 0.001-0.279 0-0.554-0.018-0.823-0.052l0.032 0.003-0.011-0.009-0.367-0.114c-1.412-0.439-1.418-1.841-1.382-2.285l0.011-0.076v-1.476c0.812-0.257 1.746-0.406 2.714-0.406h0zM10.249 15.872c-1.68 0.002-3.273 0.37-4.705 1.027l0.071-0.029v2.674s-0.378 3.362 2.72 4.324c0 0 0.308 0.256 1.83 0.256 0.381 0 0.837-0.016 1.384-0.056 2.733-0.201 3.543-3.057 3.543-3.057s0.672-2.841-0.445-4.217c-1.255-0.583-2.723-0.924-4.272-0.924-0.045 0-0.089 0-0.134 0.001l0.007-0z"></path>
<path d="M17.522 18.583h-3.18v-1.92h3.18z"></path>
<path d="M5.614 16.869l1.696-6.581s0.469-2.288 3.136-2.414c0.478 0.022 0.927 0.123 1.341 0.291l-0.027-0.010c0.796 0.29 0.564 0.8 0.564 0.8l-0.183 0.549s-0.256 0.526-0.732 0.367-1.099-0.443-1.677-0.096-0.625 0.482-0.738 0.934l-1.39 5.568-0.625 0.48-0.892 0.251z"></path>
<path d="M26.4 16.869l-1.696-6.581s-0.469-2.288-3.136-2.414c-0.478 0.022-0.927 0.123-1.341 0.291l0.027-0.010c-0.796 0.29-0.564 0.8-0.564 0.8l0.182 0.548s0.256 0.526 0.732 0.367 1.099-0.443 1.677-0.096 0.625 0.482 0.738 0.934l1.392 5.569 0.625 0.48 0.892 0.251z"></path>
</svg>
<svg id="icon-eye-slash" width="32" height="32" viewBox="0 0 32 32" x="672" y="96">
<path d="M26.4 23.1l-19.8-15.5c-0.1-0.1-0.2-0.1-0.4-0.1s-0.3 0.1-0.4 0.2v0l-0.3 0.4c-0.1 0.1-0.1 0.2-0.1 0.3 0 0.2 0.1 0.3 0.2 0.4v0l19.9 15.5c0.1 0.1 0.2 0.1 0.3 0.1 0.2 0 0.3-0.1 0.4-0.2v0l0.3-0.4c0.1-0.1 0.1-0.2 0.1-0.3s-0.1-0.3-0.2-0.4v0 0zM15.2 12.4l4.5 3.5c-0.1-2-1.7-3.6-3.7-3.6-0.3 0-0.5 0-0.8 0.1v0 0zM16.8 19.6l-4.5-3.5c0.1 2 1.7 3.6 3.7 3.6 0.3 0 0.5 0 0.8-0.1v0 0zM16 11.2c3.3 0 6.3 1.8 7.9 4.8-0.4 0.8-0.9 1.4-1.5 2v0l1.3 1c0.7-0.7 1.3-1.5 1.7-2.4v-0.1c0.1-0.1 0.1-0.3 0.1-0.5s0-0.3-0.1-0.5v0c-1.8-3.5-5.3-5.9-9.4-5.9-1.2 0-2.4 0.2-3.5 0.6l1.5 1.2c0.7-0.1 1.3-0.2 2-0.2v0zM16 20.8c-3.3 0-6.3-1.8-7.9-4.8 0.4-0.8 0.9-1.4 1.5-2v0l-1.3-1c-0.7 0.7-1.3 1.5-1.7 2.4v0.1c-0.1 0.1-0.1 0.3-0.1 0.5s0 0.3 0.1 0.5v0c1.8 3.5 5.4 5.9 9.4 5.9 1.2 0 2.4-0.2 3.5-0.6l-1.5-1.2c-0.7 0.1-1.3 0.2-2 0.2v0z"></path>
</svg>
<svg id="icon-eye" width="32" height="32" viewBox="0 0 32 32" x="720" y="96">
<path d="M16 12.1c-0.4 0-0.8 0.1-1.1 0.2v0c0.2 0.3 0.2 0.6 0.3 0.9v0c0 1.1-0.9 1.9-1.9 1.9v0c-0.3 0-0.7-0.1-0.9-0.3v0c-0.1 0.3-0.2 0.7-0.2 1.1 0 2.1 1.7 3.9 3.9 3.9s3.9-1.7 3.9-3.9-1.8-3.8-4-3.8c0 0 0 0 0 0v0 0zM25.9 15.5c-1.9-3.7-5.6-6.2-9.9-6.2s-8 2.5-9.9 6.2c-0.1 0.1-0.1 0.3-0.1 0.5s0 0.4 0.1 0.5v0c1.9 3.7 5.6 6.2 9.9 6.2s8-2.5 9.9-6.2c0.1-0.1 0.1-0.3 0.1-0.5s0-0.4-0.1-0.5c0 0 0 0 0 0zM16 21c-3.4 0-6.6-1.9-8.3-5 1.7-3.1 4.8-5 8.3-5s6.6 1.9 8.3 5c-1.7 3.1-4.9 5-8.3 5z"></path>
</svg>
</svg>
